<svg width="101" height="1299" viewBox="0 0 101 1299" fill="none" xmlns="http://www.w3.org/2000/svg">
<g opacity="0.4">
<path d="M49.5529 1298.22C36.8544 1298.22 24.1663 1293.39 14.4966 1283.72C-4.83221 1264.39 -4.83221 1232.95 14.4966 1213.62C23.8644 1204.25 36.3131 1199.1 49.5529 1199.1C62.7927 1199.1 75.2414 1204.25 84.6092 1213.62C103.938 1232.95 103.938 1264.39 84.6092 1283.72C74.95 1293.38 62.2514 1298.22 49.5529 1298.22ZM17.0988 1281.12C34.9912 1299.01 64.1042 1299.01 81.9966 1281.12C99.8891 1263.23 99.8891 1234.11 81.9966 1216.22C73.3262 1207.55 61.8039 1202.78 49.5425 1202.78C37.2811 1202.78 25.7588 1207.56 17.0884 1216.22C-0.804078 1234.11 -0.804078 1263.23 17.0884 1281.12H17.0988Z" fill="#9DADF2"/>
<path d="M48.8972 1267.21C49.0742 1267.64 49.4905 1267.89 49.9277 1267.89C50.0734 1267.89 50.2192 1267.86 50.3649 1267.81C53.8622 1266.34 57.0472 1264.07 59.5661 1261.24C59.972 1260.78 59.9304 1260.07 59.4724 1259.67C59.0145 1259.26 58.3067 1259.3 57.9007 1259.76C55.6004 1262.35 52.6964 1264.42 49.501 1265.76C48.9389 1265.99 48.6683 1266.65 48.9077 1267.21H48.8972Z" fill="#9DADF2"/>
<path d="M68.4431 1231.53L49.9574 1224.14C49.6868 1224.04 49.3953 1224.04 49.1247 1224.14L30.639 1231.53C30.2122 1231.7 29.9415 1232.1 29.9415 1232.56V1245.8C29.9623 1258.02 37.6856 1269.07 49.1559 1273.27C49.2808 1273.31 49.4057 1273.33 49.541 1273.33C49.6763 1273.33 49.8012 1273.31 49.9261 1273.27C61.3964 1269.05 69.1197 1258.02 69.1405 1245.8V1232.56C69.1405 1232.1 68.8699 1231.7 68.4431 1231.53ZM66.913 1245.8C66.8922 1256.92 59.9184 1267.05 49.5514 1271.03C39.1844 1267.05 32.2002 1256.92 32.1794 1245.8V1233.32L49.5514 1226.38L66.913 1233.32V1245.8Z" fill="#9DADF2"/>
<path d="M41.8288 1233.27C41.5581 1233.16 41.2563 1233.16 40.9753 1233.27L36.5724 1235.03C36.1457 1235.2 35.875 1235.6 35.875 1236.06V1240.75C35.875 1241.37 36.3746 1241.87 36.9887 1241.87C37.6028 1241.87 38.1025 1241.37 38.1025 1240.75V1236.82L41.7975 1235.34C42.0785 1235.23 42.2867 1235.02 42.4117 1234.74C42.5261 1234.47 42.5261 1234.17 42.4117 1233.88C42.2972 1233.6 42.089 1233.39 41.8184 1233.27H41.8288Z" fill="#9DADF2"/>
<path d="M77.6962 1220.52C70.1812 1212.99 60.1785 1208.86 49.5409 1208.86C38.9033 1208.86 28.911 1213 21.3855 1220.52C5.86628 1236.04 5.86628 1261.3 21.3855 1276.83C29.1504 1284.6 39.3404 1288.47 49.5409 1288.47C59.7414 1288.47 69.9314 1284.58 77.6962 1276.83C93.2155 1261.31 93.2155 1236.05 77.6962 1220.52ZM72.1901 1245.8C72.2213 1259.93 63.197 1272.28 49.7387 1276.56C49.6138 1276.6 49.4784 1276.6 49.3431 1276.56C35.8848 1272.28 26.8605 1259.93 26.8917 1245.8V1230.18C26.8917 1229.92 27.0478 1229.68 27.2976 1229.58L49.3015 1220.78C49.3744 1220.75 49.4576 1220.74 49.5409 1220.74C49.6242 1220.74 49.7074 1220.75 49.7803 1220.78L71.7841 1229.59C72.034 1229.68 72.1901 1229.92 72.1901 1230.19V1245.81V1245.8Z" fill="#9DADF2"/>
<path d="M49.6976 1171.61C22.3749 1171.61 0.152466 1149.38 0.152466 1122.06C0.152466 1094.75 22.3854 1072.52 49.6976 1072.52C77.0099 1072.52 99.2427 1094.75 99.2427 1122.06C99.2427 1149.38 77.0099 1171.61 49.6976 1171.61ZM49.6976 1075.82C24.1965 1075.82 3.45205 1096.56 3.45205 1122.06C3.45205 1147.57 24.1965 1168.31 49.6976 1168.31C75.1988 1168.31 95.9432 1147.57 95.9432 1122.06C95.9432 1096.56 75.1988 1075.82 49.6976 1075.82Z" fill="white"/>
<path d="M65.7682 1091.12C65.5184 1091.12 65.2686 1091.07 65.0396 1090.95C60.2412 1088.58 55.0786 1087.37 49.6973 1087.37C44.316 1087.37 39.1534 1088.58 34.355 1090.95C33.7201 1091.27 32.9602 1091.14 32.4606 1090.64L23.9463 1082.13C23.582 1081.76 23.4155 1081.26 23.4779 1080.75C23.5404 1080.24 23.8318 1079.79 24.269 1079.53C31.9402 1074.93 40.7355 1072.51 49.7077 1072.51C58.68 1072.51 67.4753 1074.94 75.1464 1079.53C75.5836 1079.79 75.875 1080.24 75.9374 1080.75C75.9999 1081.26 75.823 1081.76 75.4691 1082.13L66.9548 1090.64C66.6321 1090.95 66.2158 1091.12 65.7786 1091.12H65.7682ZM49.6973 1084.07C55.1826 1084.07 60.4702 1085.22 65.4247 1087.48L71.5866 1081.31C64.8835 1077.7 57.3581 1075.81 49.6973 1075.81C42.0365 1075.81 34.5111 1077.7 27.8079 1081.31L33.9699 1087.48C38.9244 1085.22 44.2119 1084.07 49.6973 1084.07Z" fill="white"/>
<path d="M49.6955 1171.61C40.7233 1171.61 31.928 1169.17 24.2568 1164.58C23.8196 1164.32 23.5282 1163.88 23.4657 1163.37C23.4033 1162.86 23.5802 1162.36 23.9341 1161.99L32.4484 1153.48C32.948 1152.98 33.7182 1152.85 34.3428 1153.17C39.1411 1155.54 44.3038 1156.75 49.6851 1156.75C55.0664 1156.75 60.229 1155.54 65.0274 1153.17C65.6623 1152.85 66.4222 1152.98 66.9218 1153.48L75.436 1161.99C75.8003 1162.36 75.9669 1162.86 75.9044 1163.37C75.842 1163.88 75.5505 1164.32 75.1134 1164.58C67.4422 1169.18 58.6469 1171.61 49.6747 1171.61H49.6955ZM27.8061 1162.8C34.5093 1166.42 42.0347 1168.31 49.6955 1168.31C57.3563 1168.31 64.8817 1166.42 71.5848 1162.8L65.4229 1156.64C60.4684 1158.9 55.1809 1160.05 49.6955 1160.05C44.2102 1160.05 38.9226 1158.9 33.9681 1156.64L27.8061 1162.8Z" fill="white"/>
<path d="M90.8034 1148.29C90.3662 1148.29 89.9499 1148.13 89.6376 1147.82L81.1234 1139.3C80.6237 1138.8 80.4989 1138.03 80.8111 1137.41C83.1843 1132.61 84.3916 1127.45 84.3916 1122.06C84.3916 1116.68 83.1843 1111.52 80.8111 1106.72C80.4989 1106.09 80.6237 1105.32 81.1234 1104.83L89.6376 1096.31C90.0019 1095.95 90.5015 1095.78 91.0116 1095.84C91.5216 1095.91 91.9691 1096.2 92.2294 1096.64C96.83 1104.31 99.2552 1113.1 99.2552 1122.07C99.2552 1131.05 96.83 1139.84 92.2294 1147.51C91.9691 1147.95 91.5216 1148.24 91.0116 1148.3C90.9387 1148.3 90.8762 1148.3 90.8034 1148.3V1148.29ZM84.2771 1137.78L90.4391 1143.94C94.0509 1137.24 95.9452 1129.71 95.9452 1122.05C95.9452 1114.39 94.0509 1106.87 90.4391 1100.16L84.2771 1106.33C86.5358 1111.28 87.6808 1116.57 87.6808 1122.05C87.6808 1127.54 86.5358 1132.83 84.2771 1137.78Z" fill="white"/>
<path d="M8.59416 1148.29C8.5213 1148.29 8.45885 1148.29 8.3964 1148.28C7.88637 1148.22 7.43876 1147.93 7.17854 1147.49C2.57792 1139.82 0.15271 1131.03 0.15271 1122.05C0.15271 1113.08 2.57792 1104.29 7.17854 1096.62C7.43876 1096.18 7.88637 1095.89 8.3964 1095.82C8.90642 1095.76 9.40604 1095.94 9.77034 1096.29L18.2846 1104.81C18.7842 1105.31 18.9091 1106.08 18.5968 1106.7C16.2237 1111.5 15.0163 1116.66 15.0163 1122.04C15.0163 1127.42 16.2237 1132.59 18.5968 1137.39C18.9091 1138.02 18.7842 1138.79 18.2846 1139.28L9.77034 1147.79C9.45808 1148.11 9.04168 1148.28 8.60452 1148.28L8.59416 1148.29ZM8.95844 1100.16C5.34664 1106.87 3.45229 1114.39 3.45229 1122.05C3.45229 1129.71 5.34664 1137.24 8.95844 1143.94L15.1203 1137.78C12.8617 1132.83 11.7168 1127.54 11.7168 1122.05C11.7168 1116.57 12.8617 1111.28 15.1203 1106.33L8.95844 1100.16Z" fill="white"/>
<path d="M49.6987 1084.07C28.7565 1084.07 11.7072 1101.11 11.7072 1122.06C11.7072 1143.02 28.7461 1160.06 49.6987 1160.06C70.6513 1160.06 87.6902 1143.02 87.6902 1122.06C87.6902 1101.11 70.6513 1084.07 49.6987 1084.07ZM71.078 1109.58C72.8787 1112.67 73.9716 1116.03 74.3255 1119.6C74.3359 1119.74 74.2734 1119.88 74.1485 1119.95C71.4319 1121.62 68.9962 1123.66 66.8937 1126.04C66.8 1126.15 66.6439 1126.2 66.5086 1126.14L61.8143 1124.61C61.679 1124.57 61.5853 1124.46 61.5645 1124.31C61.0336 1120.43 59.8263 1116.71 57.9735 1113.26C57.9111 1113.13 57.9215 1112.99 58.0047 1112.87L60.9087 1108.88C60.9816 1108.78 61.0961 1108.72 61.2106 1108.72C61.2418 1108.72 61.2627 1108.72 61.2939 1108.72C64.3957 1109.41 67.5807 1109.64 70.7449 1109.38C70.8906 1109.37 71.026 1109.44 71.0988 1109.56L71.078 1109.58ZM59.004 1124.97C59.0144 1125.07 58.9832 1125.18 58.9207 1125.25C56.4539 1128.09 53.3105 1130.37 49.8444 1131.83C49.7507 1131.87 49.657 1131.87 49.5634 1131.83C46.0973 1130.36 42.9538 1128.08 40.487 1125.25C40.4245 1125.18 40.3934 1125.07 40.4038 1124.97C40.8826 1121.2 42.0587 1117.6 43.8802 1114.27C43.9323 1114.17 44.0156 1114.11 44.1197 1114.09C45.9516 1113.71 47.8251 1113.51 49.7091 1113.51C51.5931 1113.51 53.4666 1113.71 55.2985 1114.09C55.4026 1114.11 55.4859 1114.17 55.5379 1114.27C57.3594 1117.6 58.5252 1121.2 59.0144 1124.97H59.004ZM58.4419 1099.13C58.4419 1099.13 58.5668 1099.03 58.6917 1099.03C58.7334 1099.03 58.7854 1099.03 58.8374 1099.06C62.6678 1100.58 66.0923 1103.08 68.7569 1106.27C68.8922 1106.43 68.8401 1106.6 68.8089 1106.66C68.7881 1106.71 68.6944 1106.88 68.4758 1106.88C66.1131 1106.91 63.7607 1106.64 61.4813 1106.1C61.3876 1106.08 61.3043 1106.01 61.2522 1105.93C60.0344 1103.92 59.056 1101.76 58.3482 1099.51C58.2858 1099.31 58.4003 1099.18 58.4523 1099.13H58.4419ZM44.4423 1097.89C47.8876 1097.15 51.5202 1097.15 54.9654 1097.89C55.1007 1097.92 55.2152 1098.02 55.2464 1098.16C55.9854 1101.25 57.1825 1104.2 58.7958 1106.94C58.8687 1107.07 58.8582 1107.22 58.775 1107.35L55.8918 1111.32C55.8086 1111.44 55.6628 1111.5 55.5275 1111.47C51.7179 1110.7 47.6898 1110.7 43.8802 1111.47C43.7449 1111.5 43.5992 1111.44 43.5159 1111.32L40.6327 1107.35C40.5495 1107.23 40.539 1107.07 40.6119 1106.94C42.2252 1104.2 43.4223 1101.25 44.1613 1098.16C44.1925 1098.02 44.307 1097.92 44.4423 1097.89ZM30.6509 1106.27C33.3155 1103.07 36.7399 1100.57 40.5703 1099.06C40.6223 1099.04 40.6744 1099.03 40.716 1099.03C40.8513 1099.03 40.9346 1099.1 40.9658 1099.13C41.0179 1099.19 41.1323 1099.31 41.0699 1099.51C40.3621 1101.77 39.3837 1103.92 38.1659 1105.93C38.1138 1106.01 38.0306 1106.08 37.9369 1106.1C35.6574 1106.64 33.3051 1106.91 30.9423 1106.88C30.7237 1106.88 30.63 1106.71 30.6092 1106.66C30.578 1106.6 30.5259 1106.43 30.6612 1106.27H30.6509ZM28.3297 1109.58C28.3922 1109.47 28.5171 1109.4 28.6524 1109.4C28.6524 1109.4 28.6732 1109.4 28.6836 1109.4C31.8583 1109.65 35.0433 1109.43 38.1347 1108.74C38.2804 1108.71 38.4261 1108.76 38.5094 1108.89L41.4134 1112.88C41.4966 1113 41.5071 1113.15 41.4446 1113.27C39.5919 1116.72 38.3845 1120.44 37.8536 1124.32C37.8328 1124.46 37.7392 1124.57 37.6038 1124.62L32.9095 1126.15C32.7742 1126.2 32.6181 1126.15 32.5244 1126.05C30.4219 1123.67 27.9862 1121.63 25.2696 1119.96C25.1551 1119.89 25.0822 1119.75 25.0926 1119.61C25.4465 1116.04 26.5394 1112.67 28.3401 1109.59L28.3297 1109.58ZM29.4643 1135.23C29.4018 1135.43 29.2249 1135.47 29.152 1135.48C29.0792 1135.48 28.9126 1135.48 28.7981 1135.31C26.5811 1131.83 25.2696 1127.79 25.0094 1123.65C24.9989 1123.44 25.1343 1123.33 25.1967 1123.3C25.2592 1123.27 25.4257 1123.2 25.5922 1123.32C27.5178 1124.69 29.2665 1126.29 30.7966 1128.07C30.859 1128.14 30.8902 1128.24 30.8798 1128.34C30.6925 1130.68 30.2137 1133 29.4539 1135.24L29.4643 1135.23ZM39.748 1144.73C36.5005 1143.31 33.6381 1141.22 31.2441 1138.53C31.1504 1138.43 31.1193 1138.27 31.1713 1138.15C32.3891 1135.21 33.1593 1132.12 33.4612 1128.95C33.4716 1128.81 33.5757 1128.68 33.711 1128.64L38.3532 1127.13C38.3532 1127.13 38.4261 1127.11 38.4677 1127.11C38.5718 1127.11 38.6655 1127.15 38.7383 1127.24C41.3405 1130.15 44.5984 1132.52 48.1686 1134.1C48.3039 1134.16 48.3872 1134.28 48.3872 1134.43V1139.31C48.3872 1139.46 48.3039 1139.59 48.1686 1139.64C45.2542 1140.9 42.5479 1142.6 40.1227 1144.67C40.0186 1144.77 39.8625 1144.79 39.7376 1144.72L39.748 1144.73ZM56.1208 1145.76C56.1104 1145.84 56.0583 1146 55.8501 1146.06C51.8324 1147.08 47.5857 1147.08 43.568 1146.06C43.3702 1146 43.3077 1145.84 43.2973 1145.76C43.2869 1145.69 43.2661 1145.53 43.4431 1145.39C45.3374 1143.98 47.3984 1142.81 49.5738 1141.9C49.6674 1141.86 49.7611 1141.86 49.8548 1141.9C52.0198 1142.81 54.0807 1143.98 55.9855 1145.39C56.152 1145.51 56.1416 1145.69 56.1312 1145.76H56.1208ZM68.1844 1138.54C65.7904 1141.23 62.928 1143.31 59.6805 1144.73C59.5452 1144.8 59.3995 1144.77 59.2954 1144.68C56.8702 1142.61 54.1744 1140.91 51.2495 1139.65C51.1142 1139.59 51.0309 1139.47 51.0309 1139.32V1134.44C51.0309 1134.29 51.1142 1134.16 51.2495 1134.11C54.8197 1132.54 58.088 1130.16 60.6798 1127.25C60.7526 1127.16 60.8463 1127.12 60.9504 1127.12C60.992 1127.12 61.0233 1127.12 61.0649 1127.14L65.7072 1128.65C65.8425 1128.69 65.9465 1128.82 65.957 1128.97C66.2588 1132.13 67.0291 1135.21 68.2469 1138.16C68.2989 1138.28 68.2781 1138.44 68.174 1138.54H68.1844ZM70.62 1135.32C70.5055 1135.5 70.3286 1135.5 70.2661 1135.49C70.1933 1135.49 70.0267 1135.44 69.9538 1135.24C69.2044 1133 68.7256 1130.68 68.5279 1128.34C68.5279 1128.25 68.5487 1128.14 68.6111 1128.07C70.1412 1126.29 71.8899 1124.7 73.8155 1123.32C73.8883 1123.27 73.9612 1123.25 74.0236 1123.25C74.1069 1123.25 74.1694 1123.28 74.211 1123.3C74.2734 1123.33 74.4192 1123.44 74.3983 1123.65C74.1381 1127.79 72.8266 1131.83 70.6096 1135.31L70.62 1135.32Z" fill="white"/>
<path d="M49.5529 1048.15C36.8544 1048.15 24.1663 1043.32 14.4966 1033.65C-4.83221 1014.32 -4.83221 982.88 14.4966 963.551C23.8644 954.184 36.3131 949.031 49.5529 949.031C62.7927 949.031 75.2414 954.184 84.6092 963.551C103.938 982.88 103.938 1014.32 84.6092 1033.65C74.95 1043.31 62.2514 1048.15 49.5529 1048.15ZM17.0988 1031.05C34.9912 1048.94 64.1042 1048.94 81.9966 1031.05C99.8891 1013.16 99.8891 984.046 81.9966 966.153C73.3262 957.483 61.8039 952.716 49.5425 952.716C37.2811 952.716 25.7588 957.493 17.0884 966.153C-0.804078 984.046 -0.804078 1013.16 17.0884 1031.05H17.0988Z" fill="#9DADF2"/>
<path d="M48.8972 1017.16C49.0742 1017.58 49.4905 1017.83 49.9277 1017.83C50.0734 1017.83 50.2192 1017.8 50.3649 1017.75C53.8622 1016.28 57.0472 1014.01 59.5661 1011.18C59.972 1010.72 59.9304 1010.02 59.4724 1009.61C59.0145 1009.2 58.3067 1009.25 57.9007 1009.7C55.6004 1012.29 52.6964 1014.37 49.501 1015.7C48.9389 1015.94 48.6683 1016.59 48.9077 1017.16H48.8972Z" fill="#9DADF2"/>
<path d="M68.4431 981.464L49.9574 974.074C49.6868 973.97 49.3953 973.97 49.1247 974.074L30.639 981.464C30.2122 981.631 29.9415 982.037 29.9415 982.495V995.735C29.9623 1007.95 37.6856 1019 49.1559 1023.2C49.2808 1023.24 49.4057 1023.27 49.541 1023.27C49.6763 1023.27 49.8012 1023.24 49.9261 1023.2C61.3964 1018.99 69.1197 1007.95 69.1405 995.735V982.495C69.1405 982.037 68.8699 981.631 68.4431 981.464ZM66.913 995.735C66.8922 1006.85 59.9184 1016.98 49.5514 1020.97C39.1844 1016.98 32.2002 1006.85 32.1794 995.735V983.255L49.5514 976.312L66.913 983.255V995.735Z" fill="#9DADF2"/>
<path d="M41.8288 983.203C41.5581 983.088 41.2563 983.088 40.9753 983.203L36.5724 984.962C36.1457 985.128 35.875 985.534 35.875 985.992V990.686C35.875 991.3 36.3746 991.8 36.9887 991.8C37.6028 991.8 38.1025 991.3 38.1025 990.686V986.752L41.7975 985.274C42.0785 985.159 42.2867 984.951 42.4117 984.67C42.5261 984.4 42.5261 984.098 42.4117 983.817C42.2972 983.536 42.089 983.327 41.8184 983.203H41.8288Z" fill="#9DADF2"/>
<path d="M77.6962 970.452C70.1812 962.927 60.1785 958.794 49.5409 958.794C38.9033 958.794 28.911 962.937 21.3855 970.452C5.86628 985.971 5.86628 1011.23 21.3855 1026.76C29.1504 1034.53 39.3404 1038.4 49.5409 1038.4C59.7414 1038.4 69.9314 1034.52 77.6962 1026.76C93.2155 1011.24 93.2155 985.982 77.6962 970.452ZM72.1901 995.735C72.2213 1009.86 63.197 1022.21 49.7387 1026.49C49.6138 1026.53 49.4784 1026.53 49.3431 1026.49C35.8848 1022.21 26.8605 1009.86 26.8917 995.735V980.111C26.8917 979.851 27.0478 979.612 27.2976 979.508L49.3015 970.712C49.3744 970.681 49.4576 970.671 49.5409 970.671C49.6242 970.671 49.7074 970.681 49.7803 970.712L71.7841 979.518C72.034 979.612 72.1901 979.851 72.1901 980.122V995.745V995.735Z" fill="#9DADF2"/>
<path d="M49.967 925.841C22.6444 925.841 0.421875 903.608 0.421875 876.296C0.421875 848.983 22.6548 826.75 49.967 826.75C77.2793 826.75 99.5121 848.983 99.5121 876.296C99.5121 903.608 77.2793 925.841 49.967 925.841ZM49.967 830.05C24.4659 830.05 3.7214 850.794 3.7214 876.296C3.7214 901.797 24.4659 922.541 49.967 922.541C75.4682 922.541 96.2126 901.797 96.2126 876.296C96.2126 850.794 75.4682 830.05 49.967 830.05Z" fill="#478BF9"/>
<path d="M82.2878 840.949L66.9495 856.288L69.9671 859.305L85.3054 843.967L82.2878 840.949Z" fill="#478BF9"/>
<path d="M29.4946 893.741L14.1564 909.079L17.174 912.097L32.5122 896.758L29.4946 893.741Z" fill="#478BF9"/>
<path d="M70.4319 893.756L67.4143 896.773L82.7526 912.112L85.7702 909.094L70.4319 893.756Z" fill="#478BF9"/>
<path d="M17.1702 840.487L14.1526 843.505L29.4835 858.836L32.5011 855.818L17.1702 840.487Z" fill="#478BF9"/>
<path d="M62.0511 877.628C63.0503 876.629 63.0503 875.015 62.0511 874.026L59.9277 871.913C58.9285 870.914 57.3152 870.914 56.3264 871.913L55.1814 873.058L53.8595 871.736C52.8603 870.737 51.2469 870.737 50.2581 871.736L49.1132 872.892L47.7913 871.559C46.792 870.56 45.1787 870.56 44.1899 871.559L37.164 878.585C37.112 878.637 37.112 878.721 37.164 878.783C38.1008 879.72 39.6309 879.72 40.5781 878.783L45.1058 874.255C45.595 873.766 46.3861 873.766 46.8753 874.255L47.2084 874.588C47.2708 874.651 47.2708 874.745 47.2084 874.807L43.4301 878.585C43.378 878.637 43.378 878.721 43.4301 878.783C44.3668 879.72 45.8969 879.72 46.8441 878.783L51.1845 874.443C51.6737 873.953 52.4648 873.953 52.954 874.443L53.2871 874.776C53.3391 874.828 53.3391 874.911 53.2871 874.974L49.644 878.617C49.592 878.669 49.592 878.752 49.644 878.814C50.5808 879.751 52.1109 879.751 53.058 878.814L57.2527 874.62C57.742 874.13 58.533 874.13 59.0222 874.62L59.7404 875.338C60.0214 875.619 60.0214 876.087 59.7404 876.368L59.6259 876.483C59.3449 876.764 58.8765 876.764 58.5954 876.483L57.6691 875.556C57.617 875.504 57.5337 875.504 57.4713 875.556L55.8684 877.159C55.8163 877.211 55.8163 877.295 55.8684 877.357L57.3152 878.804C58.3144 879.803 59.9277 879.803 60.9165 878.804L62.0615 877.659L62.0511 877.628Z" fill="#478BF9"/>
<path d="M49.9681 838.304C28.9843 838.304 11.9766 855.312 11.9766 876.295C11.9766 897.279 28.9843 914.287 49.9681 914.287C70.9519 914.287 87.9596 897.279 87.9596 876.295C87.9596 855.312 70.9519 838.304 49.9681 838.304ZM51.519 850.035C57.6184 850.388 63.1558 852.824 67.4442 856.634L61.9588 862.119C59.0964 859.694 55.4846 858.122 51.519 857.789V850.035ZM48.4276 850.035V857.789C44.4619 858.112 40.8501 859.694 37.9877 862.119L32.5024 856.634C36.7907 852.824 42.3281 850.388 48.4276 850.035ZM30.3166 858.819L35.8019 864.305C33.3767 867.167 31.805 870.779 31.4719 874.745H23.7175C24.0714 868.645 26.507 863.108 30.3166 858.819ZM23.7175 877.836H31.4719C31.7946 881.802 33.3767 885.413 35.8019 888.276L30.3166 893.761C26.507 889.473 24.0714 883.935 23.7175 877.836ZM48.4276 902.546C42.3281 902.192 36.7907 899.757 32.5024 895.947L37.9877 890.462C40.8501 892.887 44.4619 894.459 48.4276 894.792V902.546ZM34.0012 876.285C34.0012 867.469 41.152 860.318 49.9681 860.318C58.7842 860.318 65.9349 867.469 65.9349 876.285C65.9349 885.101 58.7842 892.252 49.9681 892.252C41.152 892.252 34.0012 885.101 34.0012 876.285ZM51.519 902.546V894.792C55.4846 894.469 59.0964 892.887 61.9588 890.462L67.4442 895.947C63.1558 899.757 57.6184 902.192 51.519 902.546ZM69.6299 893.761L64.1446 888.276C66.5698 885.413 68.1415 881.802 68.4746 877.836H76.229C75.8752 883.935 73.4395 889.473 69.6299 893.761ZM68.4746 874.745C68.1519 870.779 66.5698 867.167 64.1446 864.305L69.6299 858.819C73.4395 863.108 75.8752 868.645 76.229 874.745H68.4746Z" fill="#478BF9"/>
<path d="M15.0626 781.48C-4.42712 761.99 -4.42712 730.281 15.0626 710.792C34.5523 691.302 66.261 691.302 85.7507 710.792C105.24 730.281 105.24 761.99 85.7507 781.48C66.261 800.97 34.5523 800.97 15.0626 781.48ZM83.3951 713.147C65.2041 694.956 35.6093 694.956 17.423 713.147C-0.768065 731.338 -0.768065 760.933 17.423 779.119C35.614 797.31 65.2088 797.31 83.3951 779.119C101.586 760.928 101.586 731.334 83.3951 713.147Z" fill="white"/>
<path d="M83.9345 735.533C83.7591 735.358 83.6169 735.135 83.5364 734.888C81.8064 729.769 78.9814 725.234 75.1423 721.394C71.3078 717.56 66.7672 714.735 61.6483 713C60.9705 712.768 60.5155 712.138 60.5155 711.422V699.274C60.5155 698.762 60.7525 698.279 61.1554 697.961C61.563 697.644 62.0891 697.535 62.582 697.658C71.3315 699.848 79.3417 704.388 85.7403 710.792C92.1389 717.195 96.6796 725.2 98.8693 733.95C98.9926 734.448 98.8788 734.974 98.566 735.381C98.2484 735.789 97.765 736.021 97.2531 736.021H85.1052C84.6502 736.021 84.2331 735.836 83.925 735.528L83.9345 735.533ZM77.4979 719.039C81.4129 722.954 84.3658 727.542 86.2901 732.689H95.0776C92.8688 725.333 88.8543 718.612 83.3894 713.147C77.9245 707.682 71.2036 703.668 63.8523 701.464V710.251C68.9996 712.171 73.5876 715.124 77.5026 719.043L77.4979 719.039Z" fill="white"/>
<path d="M15.0613 781.48C8.66268 775.081 4.11728 767.071 1.92753 758.321C1.8043 757.824 1.91806 757.298 2.23088 756.895C2.54844 756.487 3.03187 756.255 3.54376 756.255H15.6917C16.4074 756.255 17.0425 756.71 17.27 757.388C19 762.507 21.8249 767.043 25.664 770.882C29.4985 774.716 34.0392 777.541 39.1581 779.276C39.8358 779.503 40.2908 780.138 40.2908 780.854V793.002C40.2908 793.514 40.0538 793.997 39.6509 794.315C39.2433 794.632 38.7172 794.741 38.2195 794.618C29.47 792.428 21.4647 787.888 15.0613 781.489V781.48ZM5.7288 759.582C7.9375 766.938 11.952 773.659 17.4169 779.124C22.8818 784.589 29.6028 788.603 36.9588 790.812V782.025C31.8115 780.105 27.2234 777.152 23.3084 773.237C19.3934 769.322 16.4406 764.734 14.5162 759.587H5.7288V759.582Z" fill="white"/>
<path d="M61.0115 794.173C60.6987 793.86 60.5233 793.438 60.5233 792.993V780.845C60.5233 780.129 60.9783 779.494 61.6561 779.266C66.775 777.536 71.3109 774.712 75.1501 770.872C78.9893 767.033 81.8094 762.497 83.5441 757.378C83.7716 756.701 84.4068 756.246 85.1225 756.246H97.2704C97.7823 756.246 98.2657 756.483 98.5833 756.885C98.9008 757.288 99.0099 757.819 98.8866 758.312C96.6921 767.062 92.1514 775.067 85.7528 781.47C79.3542 787.874 71.3441 792.414 62.5946 794.604C62.0969 794.727 61.5708 794.614 61.1679 794.301C61.1158 794.253 61.0637 794.211 61.0163 794.163L61.0115 794.173ZM63.8554 782.02V790.808C71.2114 788.599 77.9323 784.584 83.3972 779.119C88.8621 773.655 92.8719 766.934 95.0854 759.578H86.2979C84.3783 764.725 81.4255 769.308 77.5057 773.228C73.5907 777.143 69.0027 780.101 63.8554 782.02Z" fill="white"/>
<path d="M2.36432 735.533C2.31693 735.486 2.26954 735.433 2.23163 735.381C1.91406 734.978 1.80504 734.448 1.92828 733.95C4.11803 725.2 8.65869 717.19 15.062 710.792C21.4654 704.393 29.4708 699.848 38.2203 697.658C38.7179 697.535 39.2441 697.648 39.6469 697.961C40.0498 698.279 40.2868 698.762 40.2868 699.274V711.422C40.2868 712.138 39.8318 712.773 39.154 713C34.0352 714.73 29.4992 717.555 25.66 721.394C21.8256 725.229 19.0007 729.769 17.266 734.888C17.0385 735.566 16.4034 736.021 15.6877 736.021H3.53979C3.09426 736.021 2.66766 735.846 2.35958 735.538L2.36432 735.533ZM36.9548 701.464C29.5988 703.673 22.8778 707.687 17.4129 713.152C11.948 718.617 7.93824 725.338 5.7248 732.694H14.5122C16.4318 727.547 19.3846 722.963 23.3044 719.043C27.2194 715.128 31.8075 712.176 36.9548 710.251V701.464Z" fill="white"/>
<path d="M77.502 719.039C62.5624 704.099 38.2476 704.094 23.308 719.039C8.3637 733.983 8.36844 758.293 23.308 773.233C38.2476 788.172 62.5576 788.177 77.502 773.233C92.4463 758.288 92.4416 733.978 77.502 719.039Z" fill="white"/>
<path d="M64.2249 759.813L36.6972 759.996C35.5376 760.004 34.6038 760.95 34.6115 762.109L34.618 763.091C34.6257 764.25 35.572 765.184 36.7316 765.176L64.2592 764.994C65.4188 764.986 66.3527 764.04 66.345 762.88L66.3385 761.899C66.3308 760.739 65.3845 759.806 64.2249 759.813Z" fill="#110A1D"/>
<path d="M40.4476 743.197C40.149 743.197 39.8457 743.131 39.5708 742.998L37.4237 741.96C36.49 741.505 36.0634 740.401 36.452 739.439L37.4379 736.984C37.7413 736.235 38.457 735.746 39.2627 735.742C39.6087 735.742 39.95 735.827 40.2533 736.002L42.8128 737.462C43.2915 737.732 43.6375 738.202 43.7607 738.742C43.8839 739.282 43.7749 739.851 43.4621 740.306L42.0592 742.339C41.6942 742.87 41.0875 743.193 40.4429 743.193L40.4476 743.197Z" fill="#110A1D"/>
<path d="M60.2625 743.065C59.6179 743.065 59.0065 742.756 58.6368 742.23L57.248 740.273C56.9257 739.823 56.812 739.254 56.9258 738.713C57.0395 738.173 57.3808 737.699 57.8595 737.42L60.4995 735.87C60.7981 735.694 61.1394 735.6 61.4854 735.595C62.2911 735.59 63.0163 736.069 63.3291 736.813L64.3245 739.197C64.7226 740.154 64.3103 741.268 63.386 741.733L61.1394 742.856C60.8692 742.989 60.5658 743.065 60.2672 743.065H60.2625Z" fill="#110A1D"/>
<path d="M38.2851 758.156C37.0764 758.165 35.9911 757.407 35.5787 756.269L30.986 743.628C30.6921 743.771 30.3792 743.88 30.0617 743.96C29.6872 744.055 29.308 744.102 28.9241 744.102C28.7014 744.102 28.4833 744.093 28.27 744.064C25.8765 743.761 24.0612 741.709 24.047 739.292C24.028 736.618 26.1893 734.429 28.8625 734.41C31.5357 734.391 33.7255 736.552 33.7397 739.225C33.7397 739.841 33.6354 740.434 33.4174 740.988C33.2989 741.292 33.152 741.581 32.9814 741.856L41.7166 746.084L48.3997 736.4C48.12 736.282 47.8498 736.135 47.5939 735.96C47.1104 735.633 46.6886 735.225 46.3473 734.746C45.7691 733.931 45.4563 732.969 45.4515 731.973C45.4326 729.3 47.5939 727.111 50.2671 727.092C50.3856 727.092 50.5088 727.092 50.6273 727.101C53.0209 727.262 54.9547 729.182 55.1301 731.575C55.2106 732.708 54.9121 733.794 54.2674 734.718C53.9262 735.201 53.509 735.614 53.0303 735.941C52.7791 736.116 52.509 736.263 52.2293 736.381L59.0308 745.965L67.6239 741.666C67.4628 741.358 67.3349 741.036 67.2401 740.699C67.1263 740.292 67.0647 739.865 67.0647 739.434C67.0647 739.239 67.0741 739.045 67.0931 738.856C67.368 736.419 69.425 734.571 71.8755 734.557C74.5487 734.538 76.7384 736.699 76.7526 739.372C76.7716 741.922 74.7904 744.064 72.2452 744.24L71.9418 744.249C71.4489 744.249 70.9655 744.183 70.4962 744.041C70.1929 743.946 69.899 743.827 69.6241 743.676L65.311 756.07C64.9176 757.212 63.8369 757.98 62.6283 757.99L38.2851 758.151V758.156Z" fill="#110A1D"/>
<path d="M49.5529 675C36.8544 675 24.1663 670.171 14.4966 660.501C-4.83221 641.172 -4.83221 609.728 14.4966 590.399C23.8644 581.031 36.3131 575.879 49.5529 575.879C62.7927 575.879 75.2414 581.031 84.6092 590.399C103.938 609.728 103.938 641.172 84.6092 660.501C74.95 670.16 62.2514 675 49.5529 675ZM17.0988 657.899C34.9912 675.791 64.1042 675.791 81.9966 657.899C99.8891 640.006 99.8891 610.893 81.9966 593.001C73.3262 584.33 61.8039 579.563 49.5425 579.563C37.2811 579.563 25.7588 584.341 17.0884 593.001C-0.804078 610.893 -0.804078 640.006 17.0884 657.899H17.0988Z" fill="#9DADF2"/>
<path d="M48.8972 643.993C49.0742 644.42 49.4905 644.669 49.9277 644.669C50.0734 644.669 50.2192 644.638 50.3649 644.586C53.8622 643.118 57.0472 640.849 59.5661 638.018C59.972 637.56 59.9304 636.853 59.4724 636.447C59.0145 636.041 58.3067 636.082 57.9007 636.54C55.6004 639.132 52.6964 641.203 49.501 642.536C48.9389 642.775 48.6683 643.431 48.9077 643.993H48.8972Z" fill="#9DADF2"/>
<path d="M68.4431 608.312L49.9574 600.922C49.6868 600.818 49.3953 600.818 49.1247 600.922L30.639 608.312C30.2122 608.479 29.9415 608.885 29.9415 609.343V622.582C29.9623 634.802 37.6856 645.846 49.1559 650.051C49.2808 650.092 49.4057 650.113 49.541 650.113C49.6763 650.113 49.8012 650.092 49.9261 650.051C61.3964 645.835 69.1197 634.802 69.1405 622.582V609.343C69.1405 608.885 68.8699 608.479 68.4431 608.312ZM66.913 622.582C66.8922 633.699 59.9184 643.826 49.5514 647.813C39.1844 643.826 32.2002 633.699 32.1794 622.582V610.102L49.5514 603.16L66.913 610.102V622.582Z" fill="#9DADF2"/>
<path d="M41.8288 610.05C41.5581 609.936 41.2563 609.936 40.9753 610.05L36.5724 611.809C36.1457 611.976 35.875 612.382 35.875 612.84V617.534C35.875 618.148 36.3746 618.648 36.9887 618.648C37.6028 618.648 38.1025 618.148 38.1025 617.534V613.6L41.7975 612.122C42.0785 612.007 42.2867 611.799 42.4117 611.518C42.5261 611.247 42.5261 610.945 42.4117 610.664C42.2972 610.383 42.089 610.175 41.8184 610.05H41.8288Z" fill="#9DADF2"/>
<path d="M77.6962 597.3C70.1812 589.774 60.1785 585.642 49.5409 585.642C38.9033 585.642 28.911 589.785 21.3855 597.3C5.86628 612.819 5.86628 638.081 21.3855 653.611C29.1504 661.375 39.3404 665.247 49.5409 665.247C59.7414 665.247 69.9314 661.365 77.6962 653.611C93.2155 638.091 93.2155 612.829 77.6962 597.3ZM72.1901 622.582C72.2213 636.707 63.197 649.062 49.7387 653.34C49.6138 653.382 49.4784 653.382 49.3431 653.34C35.8848 649.062 26.8605 636.707 26.8917 622.582V606.959C26.8917 606.699 27.0478 606.459 27.2976 606.355L49.3015 597.56C49.3744 597.529 49.4576 597.518 49.5409 597.518C49.6242 597.518 49.7074 597.529 49.7803 597.56L71.7841 606.366C72.034 606.459 72.1901 606.699 72.1901 606.969V622.593V622.582Z" fill="#9DADF2"/>
<path d="M49.6976 548.389C22.3749 548.389 0.152466 526.156 0.152466 498.844C0.152466 471.532 22.3854 449.299 49.6976 449.299C77.0099 449.299 99.2427 471.532 99.2427 498.844C99.2427 526.156 77.0099 548.389 49.6976 548.389ZM49.6976 452.599C24.1965 452.599 3.45205 473.343 3.45205 498.844C3.45205 524.345 24.1965 545.09 49.6976 545.09C75.1988 545.09 95.9432 524.345 95.9432 498.844C95.9432 473.343 75.1988 452.599 49.6976 452.599Z" fill="white"/>
<path d="M65.7682 467.899C65.5184 467.899 65.2686 467.847 65.0396 467.733C60.2412 465.36 55.0786 464.152 49.6973 464.152C44.316 464.152 39.1534 465.36 34.355 467.733C33.7201 468.045 32.9602 467.92 32.4606 467.421L23.9463 458.906C23.582 458.542 23.4155 458.042 23.4779 457.532C23.5404 457.022 23.8318 456.575 24.269 456.315C31.9402 451.714 40.7355 449.289 49.7077 449.289C58.68 449.289 67.4753 451.724 75.1464 456.315C75.5836 456.575 75.875 457.022 75.9374 457.532C75.9999 458.042 75.823 458.542 75.4691 458.906L66.9548 467.421C66.6321 467.733 66.2158 467.899 65.7786 467.899H65.7682ZM49.6973 460.853C55.1826 460.853 60.4702 461.998 65.4247 464.256L71.5866 458.095C64.8835 454.483 57.3581 452.588 49.6973 452.588C42.0365 452.588 34.5111 454.483 27.8079 458.095L33.9699 464.256C38.9244 461.998 44.2119 460.853 49.6973 460.853Z" fill="white"/>
<path d="M49.6955 548.389C40.7233 548.389 31.928 545.954 24.2568 541.363C23.8196 541.103 23.5282 540.656 23.4657 540.146C23.4033 539.636 23.5802 539.136 23.9341 538.772L32.4484 530.257C32.948 529.758 33.7182 529.633 34.3428 529.945C39.1411 532.318 44.3038 533.526 49.6851 533.526C55.0664 533.526 60.229 532.318 65.0274 529.945C65.6623 529.633 66.4222 529.758 66.9218 530.257L75.436 538.772C75.8003 539.136 75.9669 539.636 75.9044 540.146C75.842 540.656 75.5505 541.103 75.1134 541.363C67.4422 545.964 58.6469 548.389 49.6747 548.389H49.6955ZM27.8061 539.584C34.5093 543.195 42.0347 545.09 49.6955 545.09C57.3563 545.09 64.8817 543.195 71.5848 539.584L65.4229 533.422C60.4684 535.68 55.1809 536.825 49.6955 536.825C44.2102 536.825 38.9226 535.68 33.9681 533.422L27.8061 539.584Z" fill="white"/>
<path d="M90.8034 525.074C90.3662 525.074 89.9499 524.907 89.6376 524.595L81.1234 516.081C80.6237 515.581 80.4989 514.811 80.8111 514.187C83.1843 509.388 84.3916 504.226 84.3916 498.844C84.3916 493.463 83.1843 488.3 80.8111 483.502C80.4989 482.867 80.6237 482.097 81.1234 481.608L89.6376 473.093C90.0019 472.729 90.5015 472.562 91.0116 472.625C91.5216 472.687 91.9691 472.979 92.2294 473.416C96.83 481.087 99.2552 489.882 99.2552 498.855C99.2552 507.827 96.83 516.622 92.2294 524.293C91.9691 524.731 91.5216 525.022 91.0116 525.084C90.9387 525.084 90.8762 525.084 90.8034 525.084V525.074ZM84.2771 514.561L90.4391 520.723C94.0509 514.02 95.9452 506.495 95.9452 498.834C95.9452 491.173 94.0509 483.648 90.4391 476.945L84.2771 483.106C86.5358 488.061 87.6808 493.349 87.6808 498.834C87.6808 504.319 86.5358 509.607 84.2771 514.561Z" fill="white"/>
<path d="M8.59416 525.074C8.5213 525.074 8.45885 525.074 8.3964 525.064C7.88637 525.001 7.43876 524.71 7.17854 524.273C2.57792 516.601 0.15271 507.806 0.15271 498.834C0.15271 489.862 2.57792 481.066 7.17854 473.395C7.43876 472.958 7.88637 472.667 8.3964 472.604C8.90642 472.542 9.40604 472.719 9.77034 473.072L18.2846 481.587C18.7842 482.086 18.9091 482.857 18.5968 483.481C16.2237 488.28 15.0163 493.442 15.0163 498.824C15.0163 504.205 16.2237 509.367 18.5968 514.166C18.9091 514.801 18.7842 515.571 18.2846 516.06L9.77034 524.574C9.45808 524.887 9.04168 525.064 8.60452 525.064L8.59416 525.074ZM8.95844 476.945C5.34664 483.648 3.45229 491.173 3.45229 498.834C3.45229 506.495 5.34664 514.02 8.95844 520.723L15.1203 514.561C12.8617 509.607 11.7168 504.319 11.7168 498.834C11.7168 493.349 12.8617 488.061 15.1203 483.106L8.95844 476.945Z" fill="white"/>
<path d="M49.6987 460.853C28.7565 460.853 11.7072 477.892 11.7072 498.844C11.7072 519.797 28.7461 536.836 49.6987 536.836C70.6513 536.836 87.6902 519.797 87.6902 498.844C87.6902 477.892 70.6513 460.853 49.6987 460.853ZM71.078 486.364C72.8787 489.445 73.9716 492.807 74.3255 496.377C74.3359 496.523 74.2734 496.659 74.1485 496.731C71.4319 498.397 68.9962 500.437 66.8937 502.82C66.8 502.935 66.6439 502.977 66.5086 502.925L61.8143 501.394C61.679 501.353 61.5853 501.238 61.5645 501.093C61.0336 497.21 59.8263 493.494 57.9735 490.039C57.9111 489.914 57.9215 489.768 58.0047 489.654L60.9087 485.657C60.9816 485.563 61.0961 485.5 61.2106 485.5C61.2418 485.5 61.2627 485.5 61.2939 485.5C64.3957 486.187 67.5807 486.416 70.7449 486.156C70.8906 486.146 71.026 486.219 71.0988 486.344L71.078 486.364ZM59.004 501.748C59.0144 501.852 58.9832 501.956 58.9207 502.029C56.4539 504.871 53.3105 507.15 49.8444 508.608C49.7507 508.649 49.657 508.649 49.5634 508.608C46.0973 507.14 42.9538 504.86 40.487 502.029C40.4245 501.956 40.3934 501.852 40.4038 501.748C40.8826 497.98 42.0587 494.379 43.8802 491.048C43.9323 490.955 44.0156 490.892 44.1197 490.871C45.9516 490.486 47.8251 490.288 49.7091 490.288C51.5931 490.288 53.4666 490.486 55.2985 490.871C55.4026 490.892 55.4859 490.955 55.5379 491.048C57.3594 494.379 58.5252 497.98 59.0144 501.748H59.004ZM58.4419 475.914C58.4419 475.914 58.5668 475.81 58.6917 475.81C58.7334 475.81 58.7854 475.81 58.8374 475.841C62.6678 477.361 66.0923 479.859 68.7569 483.054C68.8922 483.211 68.8401 483.377 68.8089 483.44C68.7881 483.492 68.6944 483.658 68.4758 483.658C66.1131 483.689 63.7607 483.419 61.4813 482.877C61.3876 482.857 61.3043 482.794 61.2522 482.711C60.0344 480.702 59.056 478.537 58.3482 476.289C58.2858 476.091 58.4003 475.956 58.4523 475.914H58.4419ZM44.4423 474.665C47.8876 473.926 51.5202 473.926 54.9654 474.665C55.1007 474.696 55.2152 474.8 55.2464 474.936C55.9854 478.027 57.1825 480.983 58.7958 483.721C58.8687 483.845 58.8582 484.002 58.775 484.127L55.8918 488.103C55.8086 488.217 55.6628 488.28 55.5275 488.248C51.7179 487.478 47.6898 487.478 43.8802 488.248C43.7449 488.28 43.5992 488.217 43.5159 488.103L40.6327 484.127C40.5495 484.012 40.539 483.845 40.6119 483.721C42.2252 480.983 43.4223 478.027 44.1613 474.936C44.1925 474.8 44.307 474.696 44.4423 474.665ZM30.6509 483.054C33.3155 479.849 36.7399 477.35 40.5703 475.841C40.6223 475.82 40.6744 475.81 40.716 475.81C40.8513 475.81 40.9346 475.883 40.9658 475.914C41.0179 475.966 41.1323 476.091 41.0699 476.289C40.3621 478.547 39.3837 480.702 38.1659 482.711C38.1138 482.794 38.0306 482.857 37.9369 482.877C35.6574 483.419 33.3051 483.689 30.9423 483.658C30.7237 483.658 30.63 483.492 30.6092 483.44C30.578 483.377 30.5259 483.211 30.6612 483.054H30.6509ZM28.3297 486.364C28.3922 486.25 28.5171 486.177 28.6524 486.177C28.6524 486.177 28.6732 486.177 28.6836 486.177C31.8583 486.427 35.0433 486.208 38.1347 485.521C38.2804 485.49 38.4261 485.542 38.5094 485.667L41.4134 489.664C41.4966 489.778 41.5071 489.935 41.4446 490.049C39.5919 493.505 38.3845 497.221 37.8536 501.103C37.8328 501.238 37.7392 501.353 37.6038 501.405L32.9095 502.935C32.7742 502.977 32.6181 502.935 32.5244 502.831C30.4219 500.447 27.9862 498.407 25.2696 496.742C25.1551 496.669 25.0822 496.534 25.0926 496.388C25.4465 492.818 26.5394 489.445 28.3401 486.375L28.3297 486.364ZM29.4643 512.011C29.4018 512.209 29.2249 512.251 29.152 512.261C29.0792 512.261 28.9126 512.261 28.7981 512.095C26.5811 508.608 25.2696 504.569 25.0094 500.426C24.9989 500.218 25.1343 500.114 25.1967 500.083C25.2592 500.052 25.4257 499.979 25.5922 500.104C27.5178 501.467 29.2665 503.07 30.7966 504.85C30.859 504.923 30.8902 505.017 30.8798 505.121C30.6925 507.463 30.2137 509.784 29.4539 512.022L29.4643 512.011ZM39.748 521.514C36.5005 520.088 33.6381 517.996 31.2441 515.311C31.1504 515.207 31.1193 515.051 31.1713 514.926C32.3891 511.99 33.1593 508.899 33.4612 505.735C33.4716 505.589 33.5757 505.464 33.711 505.423L38.3532 503.913C38.3532 503.913 38.4261 503.893 38.4677 503.893C38.5718 503.893 38.6655 503.934 38.7383 504.017C41.3405 506.932 44.5984 509.305 48.1686 510.877C48.3039 510.939 48.3872 511.064 48.3872 511.21V516.091C48.3872 516.237 48.3039 516.372 48.1686 516.425C45.2542 517.684 42.5479 519.381 40.1227 521.452C40.0186 521.546 39.8625 521.566 39.7376 521.504L39.748 521.514ZM56.1208 522.545C56.1104 522.618 56.0583 522.784 55.8501 522.836C51.8324 523.856 47.5857 523.856 43.568 522.836C43.3702 522.784 43.3077 522.618 43.2973 522.545C43.2869 522.472 43.2661 522.305 43.4431 522.17C45.3374 520.765 47.3984 519.589 49.5738 518.683C49.6674 518.642 49.7611 518.642 49.8548 518.683C52.0198 519.589 54.0807 520.765 55.9855 522.17C56.152 522.295 56.1416 522.472 56.1312 522.545H56.1208ZM68.1844 515.321C65.7904 518.007 62.928 520.088 59.6805 521.514C59.5452 521.577 59.3995 521.546 59.2954 521.462C56.8702 519.391 54.1744 517.694 51.2495 516.435C51.1142 516.372 51.0309 516.248 51.0309 516.102V511.22C51.0309 511.074 51.1142 510.939 51.2495 510.887C54.8197 509.315 58.088 506.942 60.6798 504.028C60.7526 503.945 60.8463 503.903 60.9504 503.903C60.992 503.903 61.0233 503.903 61.0649 503.924L65.7072 505.433C65.8425 505.475 65.9465 505.6 65.957 505.745C66.2588 508.909 67.0291 511.99 68.2469 514.936C68.2989 515.061 68.2781 515.217 68.174 515.321H68.1844ZM70.62 512.105C70.5055 512.282 70.3286 512.282 70.2661 512.271C70.1933 512.271 70.0267 512.219 69.9538 512.022C69.2044 509.784 68.7256 507.463 68.5279 505.121C68.5279 505.027 68.5487 504.923 68.6111 504.85C70.1412 503.07 71.8899 501.478 73.8155 500.104C73.8883 500.052 73.9612 500.031 74.0236 500.031C74.1069 500.031 74.1694 500.062 74.211 500.083C74.2734 500.114 74.4192 500.218 74.3983 500.426C74.1381 504.569 72.8266 508.608 70.6096 512.095L70.62 512.105Z" fill="white"/>
<path d="M49.5529 424.932C36.8544 424.932 24.1663 420.103 14.4966 410.433C-4.83221 391.104 -4.83221 359.66 14.4966 340.331C23.8644 330.963 36.3131 325.811 49.5529 325.811C62.7927 325.811 75.2414 330.963 84.6092 340.331C103.938 359.66 103.938 391.104 84.6092 410.433C74.95 420.092 62.2514 424.932 49.5529 424.932ZM17.0988 407.831C34.9912 425.724 64.1042 425.724 81.9966 407.831C99.8891 389.939 99.8891 360.826 81.9966 342.933C73.3262 334.263 61.8039 329.496 49.5425 329.496C37.2811 329.496 25.7588 334.273 17.0884 342.933C-0.804078 360.826 -0.804078 389.939 17.0884 407.831H17.0988Z" fill="#9DADF2"/>
<path d="M48.8972 393.935C49.0742 394.362 49.4905 394.612 49.9277 394.612C50.0734 394.612 50.2192 394.581 50.3649 394.529C53.8622 393.061 57.0472 390.792 59.5661 387.961C59.972 387.503 59.9304 386.795 59.4724 386.389C59.0145 385.983 58.3067 386.025 57.9007 386.483C55.6004 389.075 52.6964 391.146 49.501 392.478C48.9389 392.718 48.6683 393.373 48.9077 393.935H48.8972Z" fill="#9DADF2"/>
<path d="M68.4431 358.244L49.9574 350.854C49.6868 350.75 49.3953 350.75 49.1247 350.854L30.639 358.244C30.2122 358.411 29.9415 358.817 29.9415 359.275V372.514C29.9623 384.734 37.6856 395.778 49.1559 399.983C49.2808 400.024 49.4057 400.045 49.541 400.045C49.6763 400.045 49.8012 400.024 49.9261 399.983C61.3964 395.767 69.1197 384.734 69.1405 372.514V359.275C69.1405 358.817 68.8699 358.411 68.4431 358.244ZM66.913 372.514C66.8922 383.631 59.9184 393.758 49.5514 397.745C39.1844 393.758 32.2002 383.631 32.1794 372.514V360.034L49.5514 353.092L66.913 360.034V372.514Z" fill="#9DADF2"/>
<path d="M41.8288 359.982C41.5581 359.868 41.2563 359.868 40.9753 359.982L36.5724 361.741C36.1457 361.908 35.875 362.314 35.875 362.772V367.466C35.875 368.08 36.3746 368.58 36.9887 368.58C37.6028 368.58 38.1025 368.08 38.1025 367.466V363.532L41.7975 362.054C42.0785 361.939 42.2867 361.731 42.4117 361.45C42.5261 361.179 42.5261 360.877 42.4117 360.596C42.2972 360.315 42.089 360.107 41.8184 359.982H41.8288Z" fill="#9DADF2"/>
<path d="M77.6962 347.232C70.1812 339.706 60.1785 335.574 49.5409 335.574C38.9033 335.574 28.911 339.717 21.3855 347.232C5.86628 362.751 5.86628 388.013 21.3855 403.543C29.1504 411.307 39.3404 415.179 49.5409 415.179C59.7414 415.179 69.9314 411.297 77.6962 403.543C93.2155 388.023 93.2155 362.762 77.6962 347.232ZM72.1901 372.514C72.2213 386.639 63.197 398.994 49.7387 403.272C49.6138 403.314 49.4784 403.314 49.3431 403.272C35.8848 398.994 26.8605 386.639 26.8917 372.514V356.891C26.8917 356.631 27.0478 356.392 27.2976 356.287L49.3015 347.492C49.3744 347.461 49.4576 347.451 49.5409 347.451C49.6242 347.451 49.7074 347.461 49.7803 347.492L71.7841 356.298C72.034 356.392 72.1901 356.631 72.1901 356.902V372.525V372.514Z" fill="#9DADF2"/>
<path d="M49.967 302.621C22.6444 302.621 0.421875 280.388 0.421875 253.076C0.421875 225.763 22.6548 203.531 49.967 203.531C77.2793 203.531 99.5121 225.763 99.5121 253.076C99.5121 280.388 77.2793 302.621 49.967 302.621ZM49.967 206.83C24.4659 206.83 3.7214 227.574 3.7214 253.076C3.7214 278.577 24.4659 299.321 49.967 299.321C75.4682 299.321 96.2126 278.577 96.2126 253.076C96.2126 227.574 75.4682 206.83 49.967 206.83Z" fill="#478BF9"/>
<path d="M82.2878 217.729L66.9495 233.067L69.9671 236.085L85.3054 220.746L82.2878 217.729Z" fill="#478BF9"/>
<path d="M29.4946 270.521L14.1564 285.859L17.174 288.876L32.5122 273.538L29.4946 270.521Z" fill="#478BF9"/>
<path d="M70.4319 270.536L67.4143 273.553L82.7526 288.891L85.7702 285.874L70.4319 270.536Z" fill="#478BF9"/>
<path d="M17.1702 217.267L14.1526 220.285L29.4835 235.616L32.5011 232.598L17.1702 217.267Z" fill="#478BF9"/>
<path d="M62.0511 254.408C63.0503 253.409 63.0503 251.795 62.0511 250.806L59.9277 248.693C58.9285 247.694 57.3152 247.694 56.3264 248.693L55.1814 249.838L53.8595 248.516C52.8603 247.517 51.2469 247.517 50.2581 248.516L49.1132 249.672L47.7913 248.34C46.792 247.34 45.1787 247.34 44.1899 248.34L37.164 255.365C37.112 255.417 37.112 255.501 37.164 255.563C38.1008 256.5 39.6309 256.5 40.5781 255.563L45.1058 251.035C45.595 250.546 46.3861 250.546 46.8753 251.035L47.2084 251.368C47.2708 251.431 47.2708 251.525 47.2084 251.587L43.4301 255.365C43.378 255.417 43.378 255.501 43.4301 255.563C44.3668 256.5 45.8969 256.5 46.8441 255.563L51.1845 251.223C51.6737 250.734 52.4648 250.734 52.954 251.223L53.2871 251.556C53.3391 251.608 53.3391 251.691 53.2871 251.754L49.644 255.397C49.592 255.449 49.592 255.532 49.644 255.594C50.5808 256.531 52.1109 256.531 53.058 255.594L57.2527 251.4C57.742 250.91 58.533 250.91 59.0222 251.4L59.7404 252.118C60.0214 252.399 60.0214 252.867 59.7404 253.148L59.6259 253.263C59.3449 253.544 58.8765 253.544 58.5954 253.263L57.6691 252.336C57.617 252.284 57.5337 252.284 57.4713 252.336L55.8684 253.939C55.8163 253.991 55.8163 254.075 55.8684 254.137L57.3152 255.584C58.3144 256.583 59.9277 256.583 60.9165 255.584L62.0615 254.439L62.0511 254.408Z" fill="#478BF9"/>
<path d="M49.9681 215.084C28.9843 215.084 11.9766 232.092 11.9766 253.076C11.9766 274.059 28.9843 291.067 49.9681 291.067C70.9519 291.067 87.9596 274.059 87.9596 253.076C87.9596 232.092 70.9519 215.084 49.9681 215.084ZM51.519 226.815C57.6184 227.168 63.1558 229.604 67.4442 233.414L61.9588 238.899C59.0964 236.474 55.4846 234.902 51.519 234.569V226.815ZM48.4276 226.815V234.569C44.4619 234.892 40.8501 236.474 37.9877 238.899L32.5024 233.414C36.7907 229.604 42.3281 227.168 48.4276 226.815ZM30.3166 235.599L35.8019 241.085C33.3767 243.947 31.805 247.559 31.4719 251.525H23.7175C24.0714 245.425 26.507 239.888 30.3166 235.599ZM23.7175 254.616H31.4719C31.7946 258.582 33.3767 262.193 35.8019 265.056L30.3166 270.541C26.507 266.253 24.0714 260.715 23.7175 254.616ZM48.4276 279.326C42.3281 278.972 36.7907 276.537 32.5024 272.727L37.9877 267.242C40.8501 269.667 44.4619 271.239 48.4276 271.572V279.326ZM34.0012 253.065C34.0012 244.249 41.152 237.098 49.9681 237.098C58.7842 237.098 65.9349 244.249 65.9349 253.065C65.9349 261.881 58.7842 269.032 49.9681 269.032C41.152 269.032 34.0012 261.881 34.0012 253.065ZM51.519 279.326V271.572C55.4846 271.249 59.0964 269.667 61.9588 267.242L67.4442 272.727C63.1558 276.537 57.6184 278.972 51.519 279.326ZM69.6299 270.541L64.1446 265.056C66.5698 262.193 68.1415 258.582 68.4746 254.616H76.229C75.8752 260.715 73.4395 266.253 69.6299 270.541ZM68.4746 251.525C68.1519 247.559 66.5698 243.947 64.1446 241.085L69.6299 235.599C73.4395 239.888 75.8752 245.425 76.229 251.525H68.4746Z" fill="#478BF9"/>
<path d="M15.0585 158.26C-4.43127 138.77 -4.43127 107.061 15.0585 87.5716C34.5482 68.0819 66.2569 68.0819 85.7466 87.5716C105.236 107.061 105.236 138.77 85.7466 158.26C66.2569 177.75 34.5482 177.75 15.0585 158.26ZM83.391 89.9273C65.1999 71.7362 35.6051 71.7362 17.4188 89.9273C-0.772216 108.118 -0.772216 137.713 17.4188 155.899C35.6099 174.09 65.2047 174.09 83.391 155.899C101.582 137.708 101.582 108.114 83.391 89.9273Z" fill="white"/>
<path d="M83.9342 112.313C83.7589 112.138 83.6167 111.915 83.5361 111.668C81.8061 106.55 78.9812 102.014 75.142 98.1744C71.3076 94.34 66.767 91.5151 61.6481 89.7804C60.9703 89.5481 60.5153 88.9178 60.5153 88.2021V76.0542C60.5153 75.5423 60.7522 75.0588 61.1551 74.7413C61.5627 74.4237 62.0888 74.3147 62.5818 74.4379C71.3313 76.6277 79.3414 81.1683 85.74 87.5717C92.1387 93.975 96.6793 101.98 98.8691 110.73C98.9923 111.228 98.8786 111.754 98.5657 112.161C98.2482 112.569 97.7647 112.801 97.2528 112.801H85.1049C84.6499 112.801 84.2328 112.616 83.9247 112.308L83.9342 112.313ZM77.4977 95.8188C81.4127 99.7338 84.3655 104.322 86.2899 109.469H95.0773C92.8686 102.113 88.854 95.3922 83.3891 89.9273C77.9243 84.4624 71.2033 80.4479 63.852 78.2439V87.0314C68.9994 88.9509 73.5874 91.9038 77.5024 95.8235L77.4977 95.8188Z" fill="white"/>
<path d="M15.0572 158.26C8.65853 151.861 4.11313 143.851 1.92338 135.101C1.80015 134.604 1.91391 134.078 2.22673 133.675C2.54429 133.267 3.02772 133.035 3.53961 133.035H15.6875C16.4032 133.035 17.0383 133.49 17.2658 134.168C18.9958 139.287 21.8207 143.823 25.6599 147.662C29.4943 151.496 34.035 154.321 39.1539 156.056C39.8317 156.283 40.2866 156.918 40.2866 157.634V169.782C40.2866 170.294 40.0497 170.777 39.6468 171.095C39.2392 171.412 38.7131 171.521 38.2154 171.398C29.4659 169.208 21.4605 164.668 15.0572 158.269V158.26ZM5.72465 136.362C7.93335 143.718 11.9479 150.439 17.4128 155.904C22.8777 161.369 29.5986 165.384 36.9547 167.592V158.805C31.8073 156.885 27.2193 153.932 23.3042 150.017C19.3892 146.102 16.4364 141.514 14.5121 136.367H5.72465V136.362Z" fill="white"/>
<path d="M61.0035 170.953C60.6906 170.64 60.5153 170.218 60.5153 169.773V157.625C60.5153 156.909 60.9703 156.274 61.6481 156.046C66.767 154.316 71.3028 151.492 75.142 147.652C78.9812 143.813 81.8013 139.277 83.536 134.158C83.7636 133.481 84.3987 133.026 85.1144 133.026H97.2623C97.7742 133.026 98.2577 133.263 98.5752 133.665C98.8928 134.068 99.0018 134.599 98.8786 135.092C96.6841 143.842 92.1434 151.847 85.7448 158.25C79.3461 164.654 71.336 169.194 62.5865 171.384C62.0888 171.507 61.5627 171.394 61.1599 171.081C61.1077 171.033 61.0556 170.991 61.0082 170.943L61.0035 170.953ZM63.8473 158.8V167.588C71.2033 165.379 77.9242 161.364 83.3891 155.9C88.854 150.435 92.8639 143.714 95.0773 136.358H86.2898C84.3703 141.505 81.4174 146.088 77.4976 150.008C73.5826 153.923 68.9946 156.881 63.8473 158.8Z" fill="white"/>
<path d="M2.36017 112.313C2.31277 112.266 2.26539 112.213 2.22747 112.161C1.90991 111.758 1.80089 111.228 1.92413 110.73C4.11388 101.98 8.65454 93.9703 15.0579 87.5717C21.4613 81.173 29.4666 76.6277 38.2161 74.4379C38.7138 74.3147 39.2399 74.4284 39.6428 74.7412C40.0457 75.0588 40.2827 75.5423 40.2827 76.0542V88.2021C40.2827 88.9178 39.8277 89.5529 39.1499 89.7804C34.031 91.5104 29.495 94.3352 25.6559 98.1744C21.8214 102.009 18.9966 106.549 17.2618 111.668C17.0343 112.346 16.3992 112.801 15.6835 112.801H3.53564C3.09011 112.801 2.66351 112.626 2.35543 112.318L2.36017 112.313ZM36.9507 78.2439C29.5946 80.4526 22.8737 84.4672 17.4088 89.9321C11.9439 95.3969 7.93409 102.118 5.72065 109.474H14.5081C16.4277 104.327 19.3805 99.7433 23.3002 95.8235C27.2153 91.9085 31.8033 88.9557 36.9507 87.0313V78.2439Z" fill="white"/>
<path d="M77.5017 95.8188C62.5621 80.8792 38.2474 80.8744 23.3078 95.8188C8.36346 110.763 8.3682 135.073 23.3078 150.013C38.2474 164.952 62.5574 164.957 77.5017 150.013C92.446 135.068 92.4413 110.758 77.5017 95.8188Z" fill="white"/>
<path d="M64.2207 136.593L36.6931 136.776C35.5335 136.784 34.5996 137.73 34.6073 138.889L34.6138 139.871C34.6215 141.03 35.5678 141.964 36.7274 141.956L64.2551 141.774C65.4147 141.766 66.3485 140.82 66.3408 139.66L66.3343 138.679C66.3266 137.519 65.3803 136.586 64.2207 136.593Z" fill="#110A1D"/>
<path d="M40.4435 119.977C40.1449 119.977 39.8416 119.911 39.5667 119.778L37.4196 118.74C36.4858 118.285 36.0592 117.181 36.4479 116.219L37.4338 113.764C37.7371 113.015 38.4528 112.526 39.2586 112.522C39.6046 112.522 39.9458 112.607 40.2492 112.782L42.8086 114.242C43.2873 114.512 43.6333 114.982 43.7566 115.522C43.8798 116.062 43.7708 116.631 43.458 117.086L42.055 119.119C41.6901 119.65 41.0834 119.973 40.4388 119.973L40.4435 119.977Z" fill="#110A1D"/>
<path d="M60.2623 119.845C59.6177 119.845 59.0063 119.537 58.6366 119.01L57.2478 117.053C56.9255 116.603 56.8118 116.034 56.9255 115.494C57.0393 114.953 57.3805 114.479 57.8592 114.2L60.4992 112.65C60.7978 112.474 61.1391 112.38 61.4851 112.375C62.2909 112.37 63.0161 112.849 63.3289 113.593L64.3242 115.977C64.7224 116.934 64.31 118.048 63.3858 118.513L61.1391 119.636C60.869 119.769 60.5656 119.845 60.267 119.845H60.2623Z" fill="#110A1D"/>
<path d="M38.2809 134.936C37.0723 134.945 35.9869 134.187 35.5746 133.049L30.9818 120.408C30.6879 120.551 30.3751 120.66 30.0575 120.74C29.6831 120.835 29.3039 120.882 28.92 120.882C28.6972 120.882 28.4792 120.873 28.2659 120.845C25.8723 120.541 24.0571 118.489 24.0428 116.072C24.0239 113.398 26.1852 111.209 28.8584 111.19C31.5316 111.171 33.7213 113.332 33.7355 116.005C33.7355 116.621 33.6313 117.214 33.4132 117.768C33.2947 118.072 33.1478 118.361 32.9772 118.636L41.7125 122.864L48.3955 113.18C48.1159 113.062 47.8457 112.915 47.5897 112.74C47.1063 112.413 46.6845 112.005 46.3432 111.526C45.7649 110.711 45.4521 109.749 45.4474 108.753C45.4284 106.08 47.5897 103.891 50.2629 103.872C50.3814 103.872 50.5047 103.872 50.6232 103.881C53.0167 104.042 54.9505 105.962 55.1259 108.355C55.2065 109.488 54.9079 110.574 54.2633 111.498C53.922 111.981 53.5049 112.394 53.0262 112.721C52.775 112.896 52.5048 113.043 52.2252 113.161L59.0267 122.745L67.6198 118.446C67.4586 118.138 67.3307 117.816 67.2359 117.479C67.1222 117.072 67.0605 116.645 67.0605 116.214C67.0605 116.019 67.07 115.825 67.0889 115.636C67.3638 113.199 69.4209 111.351 71.8713 111.337C74.5445 111.318 76.7343 113.479 76.7485 116.152C76.7675 118.702 74.7862 120.845 72.241 121.02L71.9377 121.029C71.4447 121.029 70.9613 120.963 70.4921 120.821C70.1887 120.726 69.8948 120.608 69.6199 120.456L65.3068 132.85C64.9134 133.992 63.8327 134.76 62.6241 134.77L38.2809 134.931V134.936Z" fill="#110A1D"/>
<path d="M99.9816 2.04012V121.635C99.9816 122.624 99.1801 123.415 98.2017 123.415C97.2233 123.415 96.4219 122.614 96.4219 121.635V2.04012C96.4219 1.0513 97.2233 0.260254 98.2017 0.260254C99.1801 0.260254 99.9816 1.06171 99.9816 2.04012Z" fill="white"/>
<path d="M4.43864 1.77987V121.375C4.43864 122.364 3.63722 123.155 2.65881 123.155C1.68039 123.155 0.878906 122.354 0.878906 121.375V1.77987C0.878906 0.791047 1.68039 0 2.65881 0C3.63722 0 4.43864 0.801456 4.43864 1.77987Z" fill="white"/>
</g>
</svg>